<?xml version="1.0" encoding="UTF-8"?>
<svg id="Layer_1" data-name="Layer 1" xmlns="http://www.w3.org/2000/svg" viewBox="0 0 200 200">
  <defs>
    <style>
      .cls-1 {
        fill: #010101;
      }
    </style>
  </defs>
  <circle class="cls-1" cx="37.15" cy="37.15" r="37.15"/>
  <circle class="cls-1" cx="127.62" cy="127.62" r="67.55"/>
  <g>
    <path class="cls-1" d="m154.63,200h26.07c10.66,0,19.3-8.64,19.3-19.3v-26.07c-7.81,20.93-24.44,37.56-45.37,45.37Z"/>
    <path class="cls-1" d="m50.39,127.62c0-42.66,34.58-77.24,77.24-77.24,33.16,0,61.43,20.9,72.38,50.24V26.3c0-10.66-8.64-19.3-19.3-19.3h-107.56c6.84,8.16,10.97,18.67,10.97,30.16,0,25.93-21.02,46.96-46.96,46.96-11.48,0-22-4.13-30.16-10.97v107.56c0,10.66,8.64,19.3,19.3,19.3h74.33c-29.34-10.95-50.24-39.22-50.24-72.38ZM115.56,19.06h48.25c6.66,0,12.06,5.4,12.06,12.06s-5.4,12.06-12.06,12.06h-48.25c-6.66,0-12.06-5.4-12.06-12.06s5.4-12.06,12.06-12.06Z"/>
  </g>
</svg>